<?xml version="1.0"?>
<svg xmlns="http://www.w3.org/2000/svg" id="Outline" viewBox="0 0 512 512" width="50" height="50"><path d="M472,24H40A24.028,24.028,0,0,0,16,48V464a24.028,24.028,0,0,0,24,24H472a24.028,24.028,0,0,0,24-24V48A24.028,24.028,0,0,0,472,24ZM40,40H472a8.009,8.009,0,0,1,8,8V88H32V48A8.009,8.009,0,0,1,40,40ZM472,472H40a8.009,8.009,0,0,1-8-8V104H480V464A8.009,8.009,0,0,1,472,472Z"/><circle cx="120" cy="64" r="8"/><circle cx="88" cy="64" r="8"/><circle cx="56" cy="64" r="8"/><path d="M440,136H72a8,8,0,0,0-8,8V272a8,8,0,0,0,8,8H440a8,8,0,0,0,8-8V144A8,8,0,0,0,440,136ZM308.849,254.465,328,235.313,356.687,264H316ZM296,264H232l32-42.667Zm-84,0H151.365L192,205.95l30.673,43.819Zm220,0H379.313l-45.656-45.657a8,8,0,0,0-11.314,0l-23.192,23.192L270.4,203.2a8,8,0,0,0-12.8,0l-24.825,33.1-34.221-48.888a8,8,0,0,0-13.108,0L131.835,264H80V152H432Z"/><circle cx="304" cy="192" r="8"/><circle cx="288" cy="304" r="8"/><circle cx="256" cy="304" r="8"/><circle cx="224" cy="304" r="8"/><path d="M168,328H72a8,8,0,0,0-8,8v64a8,8,0,0,0,8,8h96a8,8,0,0,0,8-8V336A8,8,0,0,0,168,328Zm-8,16v45.755l-35-28a8,8,0,0,0-10,0l-35,28V344Zm-22.806,48H102.806L120,378.245Z"/><path d="M304,328H208a8,8,0,0,0-8,8v64a8,8,0,0,0,8,8h96a8,8,0,0,0,8-8V336A8,8,0,0,0,304,328Zm-8,16v45.755l-35-28a8,8,0,0,0-10,0l-35,28V344Zm-22.806,48H238.806L256,378.245Z"/><path d="M440,328H344a8,8,0,0,0-8,8v64a8,8,0,0,0,8,8h96a8,8,0,0,0,8-8V336A8,8,0,0,0,440,328Zm-8,16v45.755l-35-28a8,8,0,0,0-10,0l-35,28V344Zm-22.806,48H374.806L392,378.245Z"/><path d="M152,424H88a8,8,0,0,0,0,16h64a8,8,0,0,0,0-16Z"/><path d="M288,424H224a8,8,0,0,0,0,16h64a8,8,0,0,0,0-16Z"/><path d="M424,424H360a8,8,0,0,0,0,16h64a8,8,0,0,0,0-16Z"/></svg>
